<svg xmlns="http://www.w3.org/2000/svg" xmlns:xlink="http://www.w3.org/1999/xlink" width="244.128" height="49.008" viewBox="0 0 244.128 49.008"><defs><linearGradient id="linear-gradient" x1="0.5" x2="0.968" gradientUnits="objectBoundingBox"><stop offset="0" stop-color="#2dad5a"></stop><stop offset="1" stop-color="#fff"></stop></linearGradient></defs><g id="Group_2" data-name="Group 2" transform="translate(-273.227 -339.876)"><path id="Path_1" data-name="Path 1" d="M4.875-13.125v2.309A6.286,6.286,0,0,1,6.938-12.8,4.508,4.508,0,0,1,9.2-13.418a3.568,3.568,0,0,1,2.824,1.172,4.042,4.042,0,0,1,.938,2.789v9.5H9.867v-8.66q0-2.215-1.828-2.215a2.878,2.878,0,0,0-1.734.68A5.6,5.6,0,0,0,4.969-8.59V.047H1.945V-13.125Zm14.856-4.3v4.3h2.953v2.2H19.731v7.23q0,1.9,1.629,1.9a6.846,6.846,0,0,0,1.535-.152L22.778.211a15.809,15.809,0,0,1-2.355.152A3.749,3.749,0,0,1,17.54-.6a3.644,3.644,0,0,1-.785-2.543v-7.781H14.786v-2.2h1.969v-3.621ZM35.665-5.883H26.759a4.839,4.839,0,0,0,.961,3.164,2.941,2.941,0,0,0,2.355,1q2.121,0,2.777-2.508l2.742.8Q34.352.387,30.04.387a5.789,5.789,0,0,1-4.793-2.039,7.417,7.417,0,0,1-1.441-4.8,7.245,7.245,0,0,1,1.875-5.32,5.491,5.491,0,0,1,4.1-1.641,5.334,5.334,0,0,1,4.406,2.027A7.578,7.578,0,0,1,35.665-6.5ZM32.712-7.875q-.223-3.457-2.883-3.457a2.643,2.643,0,0,0-2.238,1.055,4.433,4.433,0,0,0-.785,2.4Zm12.266-5.543-.2,2.836q-2.52,0-3.738,3.34V.047H38.064V-13.125H40.9v3.234Q42.177-13.418,44.978-13.418Zm1.461,3.609q1.02-3.633,5.449-3.633Q57-13.441,57-9.07v5.227A36.724,36.724,0,0,0,57.209.047H54.431q-.129-.738-.223-1.723A4.733,4.733,0,0,1,50.06.363a3.99,3.99,0,0,1-3.07-1.2,3.825,3.825,0,0,1-.984-2.719q0-3.516,4.3-4.348a24.532,24.532,0,0,1,3.762-.375v-.75a2.389,2.389,0,0,0-.621-1.863,2.489,2.489,0,0,0-1.664-.469,2.341,2.341,0,0,0-1.711.668,2.972,2.972,0,0,0-.809,1.641Zm7.629,3.4a14.84,14.84,0,0,0-3.023.387q-2.156.516-2.156,2.238,0,1.992,2.109,1.992a3.445,3.445,0,0,0,3.07-2.168Zm16.59-2.8-2.93.668q-.422-2.672-2.332-2.672-2.953,0-2.953,4.688,0,4.711,2.953,4.711,2.086,0,2.52-2.766l2.813.773A5.242,5.242,0,0,1,68.655-.551a5.686,5.686,0,0,1-3.328.938,5.457,5.457,0,0,1-4.594-2.062,7.7,7.7,0,0,1-1.383-4.8,7.289,7.289,0,0,1,1.828-5.309,5.522,5.522,0,0,1,4.148-1.629,5.4,5.4,0,0,1,3.691,1.242A5.3,5.3,0,0,1,70.658-9.211Zm5.68-8.215v4.3h2.953v2.2H76.339v7.23q0,1.9,1.629,1.9A6.846,6.846,0,0,0,79.5-1.945L79.385.211A15.809,15.809,0,0,1,77.03.363,3.749,3.749,0,0,1,74.147-.6a3.644,3.644,0,0,1-.785-2.543v-7.781H71.393v-2.2h1.969v-3.621Zm7.872,4.3V.047H81.187V-13.125Zm.129-5.449v3.094h-3.27v-3.094Zm13.438,5.449L93.64.047H90.066L85.988-13.125h3.234l1.371,5.5q.27,1.066.645,2.719.41,1.781.563,2.414h.281q.211-.8.691-2.754.375-1.5.633-2.449l1.418-5.426Zm12.864,7.242h-8.906a4.839,4.839,0,0,0,.961,3.164,2.941,2.941,0,0,0,2.355,1q2.121,0,2.777-2.508l2.742.8q-1.242,3.82-5.555,3.82a5.789,5.789,0,0,1-4.793-2.039,7.417,7.417,0,0,1-1.441-4.8,7.245,7.245,0,0,1,1.875-5.32,5.491,5.491,0,0,1,4.1-1.641,5.334,5.334,0,0,1,4.406,2.027A7.578,7.578,0,0,1,110.641-6.5Zm-2.953-1.992q-.223-3.457-2.883-3.457a2.643,2.643,0,0,0-2.238,1.055,4.433,4.433,0,0,0-.785,2.4Z" transform="translate(285 375)" fill="#464646"></path><path id="Path_2" data-name="Path 2" d="M6.412-21.67V.055H2.6V-21.67Zm17.968,0v3.049H17.914V.055H14.1V-18.621H7.687V-21.67Z" transform="translate(395 375)" fill="#2dad5a"></path><path id="Path_3" data-name="Path 3" d="M11.449-10.055l-2.859.82Q8.1-11.355,6.246-11.355a2.432,2.432,0,0,0-1.582.469,1.156,1.156,0,0,0-.48.949A1.476,1.476,0,0,0,4.711-8.7a5.609,5.609,0,0,0,1.816.727l1.1.293a6.8,6.8,0,0,1,3.293,1.629,3.408,3.408,0,0,1,.8,2.379A3.523,3.523,0,0,1,10.207-.621,6.409,6.409,0,0,1,6.387.387q-4.3,0-5.5-3.293L3.7-3.891A2.679,2.679,0,0,0,6.457-1.676q2.4,0,2.4-1.7A1.387,1.387,0,0,0,8.3-4.605a8.46,8.46,0,0,0-1.98-.75l-1.1-.3A6.21,6.21,0,0,1,2.086-7.254a3.61,3.61,0,0,1-.738-2.414,3.266,3.266,0,0,1,1.441-2.8,5.888,5.888,0,0,1,3.5-.949Q10.313-13.418,11.449-10.055Zm7.825-3.363a5.417,5.417,0,0,1,4.512,2.074,7.547,7.547,0,0,1,1.441,4.793,7.283,7.283,0,0,1-1.852,5.309A5.517,5.517,0,0,1,19.25.387a5.409,5.409,0,0,1-4.523-2.074A7.559,7.559,0,0,1,13.3-6.48a7.28,7.28,0,0,1,1.863-5.309A5.527,5.527,0,0,1,19.274-13.418Zm0,2.18q-2.883,0-2.883,4.711,0,4.734,2.859,4.734,2.883,0,2.883-4.734Q22.133-11.238,19.274-11.238ZM30.7-18.914V.047H27.673V-18.914Zm14.188,5.789V.047h-2.93V-2.227a5.443,5.443,0,0,1-1.98,1.992,4.528,4.528,0,0,1-2.3.621,3.719,3.719,0,0,1-2.836-1.1A3.925,3.925,0,0,1,33.868-3.5v-9.621h3.094v8.754q0,2.168,1.852,2.168a2.913,2.913,0,0,0,1.8-.727,4.682,4.682,0,0,0,1.242-1.535v-8.66Zm6.84-4.3v4.3h2.953v2.2H51.724v7.23q0,1.9,1.629,1.9a6.846,6.846,0,0,0,1.535-.152L54.771.211a15.809,15.809,0,0,1-2.355.152A3.749,3.749,0,0,1,49.533-.6a3.644,3.644,0,0,1-.785-2.543v-7.781H46.779v-2.2h1.969v-3.621Zm7.872,4.3V.047H56.573V-13.125Zm.129-5.449v3.094h-3.27v-3.094Zm8.27,5.156a5.417,5.417,0,0,1,4.512,2.074,7.547,7.547,0,0,1,1.441,4.793A7.283,7.283,0,0,1,72.1-1.242,5.517,5.517,0,0,1,67.971.387a5.409,5.409,0,0,1-4.523-2.074,7.559,7.559,0,0,1-1.43-4.793,7.28,7.28,0,0,1,1.863-5.309A5.527,5.527,0,0,1,67.995-13.418Zm0,2.18q-2.883,0-2.883,4.711,0,4.734,2.859,4.734,2.883,0,2.883-4.734Q70.854-11.238,67.995-11.238Zm11.329-1.887v2.309a6.286,6.286,0,0,1,2.063-1.98,4.508,4.508,0,0,1,2.262-.621,3.568,3.568,0,0,1,2.824,1.172,4.042,4.042,0,0,1,.938,2.789v9.5H84.316v-8.66q0-2.215-1.828-2.215a2.878,2.878,0,0,0-1.734.68A5.6,5.6,0,0,0,79.417-8.59V.047H76.394V-13.125Zm20.762,3.07-2.859.82q-.492-2.121-2.344-2.121a2.432,2.432,0,0,0-1.582.469,1.156,1.156,0,0,0-.48.949A1.476,1.476,0,0,0,93.347-8.7a5.609,5.609,0,0,0,1.816.727l1.1.293a6.8,6.8,0,0,1,3.293,1.629,3.408,3.408,0,0,1,.8,2.379A3.523,3.523,0,0,1,98.843-.621,6.409,6.409,0,0,1,95.023.387q-4.3,0-5.5-3.293l2.813-.984a2.679,2.679,0,0,0,2.754,2.215q2.4,0,2.4-1.7a1.387,1.387,0,0,0-.562-1.23,8.46,8.46,0,0,0-1.98-.75l-1.1-.3a6.21,6.21,0,0,1-3.129-1.594,3.61,3.61,0,0,1-.738-2.414,3.266,3.266,0,0,1,1.441-2.8,5.888,5.888,0,0,1,3.5-.949Q98.949-13.418,100.086-10.055Z" transform="translate(417 375.344)" fill="#464646"></path><rect id="Rectangle_3" data-name="Rectangle 3" width="106" height="10" transform="translate(295 377)" fill="url(#linear-gradient)"></rect><path id="Path_4" data-name="Path 4" d="M1.7,0V-8.412H.156V-9.72H5v1.308H3.48V0ZM6.216,0V-9.72H7.848v3.444a2.852,2.852,0,0,1,.786-.564,2.125,2.125,0,0,1,.93-.2,1.016,1.016,0,0,1,.672.21,1.229,1.229,0,0,1,.372.558,2.3,2.3,0,0,1,.12.756V0H9.1V-5.2a.979.979,0,0,0-.1-.48.391.391,0,0,0-.372-.168.924.924,0,0,0-.378.1,1.871,1.871,0,0,0-.4.252V0Zm6.168,0V-6.936h1.632V0Zm0-8.04V-9.4h1.632V-8.04ZM15.72,0V-6.936h1.632v.7a3.534,3.534,0,0,1,.786-.582,1.863,1.863,0,0,1,.894-.222,1.036,1.036,0,0,1,.684.21,1.229,1.229,0,0,1,.372.558,2.3,2.3,0,0,1,.12.756V0H18.576V-5.2a.979.979,0,0,0-.1-.48.391.391,0,0,0-.372-.168.846.846,0,0,0-.366.1,2.386,2.386,0,0,0-.39.24V0Zm6.108,0V-9.72H23.46v5.58l1.788-2.8h1.776l-1.74,2.784L26.988,0H25.272l-1.26-3.42-.552.768V0ZM31.5,0V-9.72h2.388a5.235,5.235,0,0,1,1.17.12,2.374,2.374,0,0,1,.9.4,1.81,1.81,0,0,1,.582.762,3.115,3.115,0,0,1,.2,1.212,2.8,2.8,0,0,1-.162,1.008,1.524,1.524,0,0,1-.474.666,1.731,1.731,0,0,1-.78.33,2.011,2.011,0,0,1,.954.4,1.84,1.84,0,0,1,.564.8,3.368,3.368,0,0,1,.186,1.188,3.97,3.97,0,0,1-.174,1.23,2.265,2.265,0,0,1-.516.888,2.164,2.164,0,0,1-.852.534A3.588,3.588,0,0,1,34.3,0Zm1.776-1.248h.672a1.285,1.285,0,0,0,1.092-.39,2.037,2.037,0,0,0,.288-1.206A2.751,2.751,0,0,0,35.19-3.8a1.015,1.015,0,0,0-.456-.546,1.714,1.714,0,0,0-.846-.18h-.612Zm0-4.5h.6a1.739,1.739,0,0,0,.816-.156.842.842,0,0,0,.4-.48,2.49,2.49,0,0,0,.114-.816,1.524,1.524,0,0,0-.174-.8.877.877,0,0,0-.522-.384,3.225,3.225,0,0,0-.888-.1h-.348ZM40.584.108a2.454,2.454,0,0,1-1.272-.294,1.744,1.744,0,0,1-.726-.864,3.615,3.615,0,0,1-.234-1.374V-4.512A3.641,3.641,0,0,1,38.586-5.9a1.707,1.707,0,0,1,.732-.852,2.5,2.5,0,0,1,1.266-.288,2.286,2.286,0,0,1,1.29.312,1.7,1.7,0,0,1,.66.906,4.608,4.608,0,0,1,.2,1.446V-3.4h-2.76v1.368a1.928,1.928,0,0,0,.066.552.551.551,0,0,0,.21.312.613.613,0,0,0,.348.1.554.554,0,0,0,.348-.1.577.577,0,0,0,.192-.3,1.747,1.747,0,0,0,.06-.5v-.576H42.72v.468a2.283,2.283,0,0,1-.528,1.62A2.1,2.1,0,0,1,40.584.108ZM39.972-4.2H41.2v-.66a2.3,2.3,0,0,0-.06-.582.587.587,0,0,0-.192-.324.6.6,0,0,0-.372-.1.532.532,0,0,0-.348.108.642.642,0,0,0-.192.36,3.3,3.3,0,0,0-.06.72Zm4.32,6.084V.708A3.956,3.956,0,0,0,44.976.66.715.715,0,0,0,45.36.492a.454.454,0,0,0,.12-.336A2.454,2.454,0,0,0,45.4-.336q-.078-.336-.174-.732L43.7-6.936h1.584l.9,4.572.78-4.572H48.54L46.92.276a2.062,2.062,0,0,1-.444.96,1.738,1.738,0,0,1-.78.5,3.585,3.585,0,0,1-1.092.15ZM51.8.108a2.484,2.484,0,0,1-1.248-.282A1.761,1.761,0,0,1,49.818-1,3.141,3.141,0,0,1,49.572-2.3V-4.632a3.141,3.141,0,0,1,.246-1.308,1.761,1.761,0,0,1,.738-.822A2.484,2.484,0,0,1,51.8-7.044a2.518,2.518,0,0,1,1.254.282,1.752,1.752,0,0,1,.744.822,3.142,3.142,0,0,1,.246,1.308V-2.3A3.142,3.142,0,0,1,53.8-1a1.752,1.752,0,0,1-.744.822A2.518,2.518,0,0,1,51.8.108Zm.012-1.128a.505.505,0,0,0,.408-.156.811.811,0,0,0,.168-.426,4.514,4.514,0,0,0,.036-.594V-4.74a4.377,4.377,0,0,0-.036-.588.84.84,0,0,0-.168-.426.5.5,0,0,0-.408-.162.5.5,0,0,0-.408.162.88.88,0,0,0-.174.426,3.761,3.761,0,0,0-.042.588V-2.2a3.878,3.878,0,0,0,.042.594.848.848,0,0,0,.174.426A.505.505,0,0,0,51.816-1.02ZM55.572,0V-6.936H57.2v.7a3.534,3.534,0,0,1,.786-.582,1.863,1.863,0,0,1,.894-.222,1.036,1.036,0,0,1,.684.21,1.229,1.229,0,0,1,.372.558,2.3,2.3,0,0,1,.12.756V0H58.428V-5.2a.979.979,0,0,0-.1-.48.391.391,0,0,0-.372-.168.846.846,0,0,0-.366.1,2.386,2.386,0,0,0-.39.24V0Zm7.656.108A1.45,1.45,0,0,1,61.974-.48a3.26,3.26,0,0,1-.426-1.884V-4.488a4.787,4.787,0,0,1,.162-1.3,1.969,1.969,0,0,1,.522-.918,1.353,1.353,0,0,1,.972-.342,1.6,1.6,0,0,1,.69.15,2.354,2.354,0,0,1,.582.39V-9.72h1.632V0H64.476V-.492a2.393,2.393,0,0,1-.588.438A1.413,1.413,0,0,1,63.228.108Zm.6-1.128a.905.905,0,0,0,.3-.06,1.966,1.966,0,0,0,.348-.168V-5.7a1.644,1.644,0,0,0-.312-.162.944.944,0,0,0-.348-.066.49.49,0,0,0-.486.318,1.941,1.941,0,0,0-.138.774v2.592a3.664,3.664,0,0,0,.048.624.9.9,0,0,0,.186.438A.5.5,0,0,0,63.828-1.02ZM72.156,0V-8.412H70.608V-9.72h4.848v1.308H73.932V0Zm4.512,0V-9.72H78.3v3.444a2.852,2.852,0,0,1,.786-.564,2.125,2.125,0,0,1,.93-.2,1.016,1.016,0,0,1,.672.21,1.229,1.229,0,0,1,.372.558,2.3,2.3,0,0,1,.12.756V0H79.548V-5.2a.979.979,0,0,0-.1-.48.391.391,0,0,0-.372-.168.924.924,0,0,0-.378.1,1.871,1.871,0,0,0-.4.252V0Zm8.22.108a2.454,2.454,0,0,1-1.272-.294,1.744,1.744,0,0,1-.726-.864,3.615,3.615,0,0,1-.234-1.374V-4.512A3.641,3.641,0,0,1,82.89-5.9a1.707,1.707,0,0,1,.732-.852,2.5,2.5,0,0,1,1.266-.288,2.286,2.286,0,0,1,1.29.312,1.7,1.7,0,0,1,.66.906,4.608,4.608,0,0,1,.2,1.446V-3.4h-2.76v1.368a1.928,1.928,0,0,0,.066.552.551.551,0,0,0,.21.312.613.613,0,0,0,.348.1.554.554,0,0,0,.348-.1.577.577,0,0,0,.192-.3,1.747,1.747,0,0,0,.06-.5v-.576h1.524v.468A2.283,2.283,0,0,1,86.5-.456,2.1,2.1,0,0,1,84.888.108ZM84.276-4.2H85.5v-.66a2.3,2.3,0,0,0-.06-.582.587.587,0,0,0-.192-.324.6.6,0,0,0-.372-.1.532.532,0,0,0-.348.108.643.643,0,0,0-.192.36,3.3,3.3,0,0,0-.06.72ZM91.98,0V-9.72h1.776v8.5h2.352V0Zm5.4,0V-6.936h1.632V0Zm0-8.04V-9.4h1.632V-8.04ZM100.716,0V-6.936h1.572v.6a2.258,2.258,0,0,1,.78-.558,2.208,2.208,0,0,1,.852-.174,1.257,1.257,0,0,1,.714.2,1.182,1.182,0,0,1,.45.648,2.453,2.453,0,0,1,.84-.654,2.218,2.218,0,0,1,.912-.2,1.19,1.19,0,0,1,.66.186,1.261,1.261,0,0,1,.456.552,2.2,2.2,0,0,1,.168.918V0h-1.56V-5.268a.843.843,0,0,0-.132-.546.469.469,0,0,0-.372-.15,1.029,1.029,0,0,0-.426.108,1.473,1.473,0,0,0-.426.3V0h-1.548V-5.268a.816.816,0,0,0-.138-.546.488.488,0,0,0-.378-.15.99.99,0,0,0-.42.108,1.682,1.682,0,0,0-.432.3V0Zm9.072,0V-6.936h1.632V0Zm0-8.04V-9.4h1.632V-8.04Zm5.34,8.124a2.1,2.1,0,0,1-1.038-.216,1.186,1.186,0,0,1-.534-.624,2.722,2.722,0,0,1-.156-.972V-5.856h-.7v-1.08h.7V-9.012h1.644v2.076H116.1v1.08h-1.056v3.984a.688.688,0,0,0,.156.51.651.651,0,0,0,.468.15q.132,0,.258-.012l.246-.024V0L115.7.054A5.166,5.166,0,0,1,115.128.084Z" transform="translate(401 387)" fill="#2dad5a"></path><rect id="Rectangle_2" data-name="Rectangle 2" width="7" height="10" transform="translate(287 377)" fill="#2dad5a"></rect><rect id="Rectangle_4" data-name="Rectangle 4" width="9" height="28" transform="translate(277 359)" fill="#2dad5a"></rect><g id="Group_1" data-name="Group 1"><rect id="Rectangle_5" data-name="Rectangle 5" width="12" height="12" transform="matrix(0.695, 0.719, -0.719, 0.695, 281.859, 339.876)" fill="#2dad5a"></rect><rect id="Rectangle_6" data-name="Rectangle 6" width="8" height="8" transform="matrix(0.695, 0.719, -0.719, 0.695, 281.859, 342.876)" fill="#464646"></rect><rect id="Rectangle_7" data-name="Rectangle 7" width="4" height="4" transform="matrix(0.695, 0.719, -0.719, 0.695, 281.859, 345.876)" fill="#fff"></rect></g></g></svg>